<svg width="19" height="20" viewBox="0 0 19 20" fill="none" xmlns="http://www.w3.org/2000/svg">
<path d="M18.4041 6.94C18.3936 6.84813 18.3735 6.75763 18.3441 6.67V6.58C18.296 6.47718 18.2318 6.38267 18.1541 6.3L12.1541 0.3C12.0714 0.222216 11.9769 0.158081 11.8741 0.11C11.8442 0.10576 11.8139 0.10576 11.7841 0.11C11.6825 0.0517412 11.5703 0.0143442 11.4541 0H7.40405C6.6084 0 5.84534 0.316071 5.28273 0.87868C4.72012 1.44129 4.40405 2.20435 4.40405 3V4H3.40405C2.6084 4 1.84534 4.31607 1.28273 4.87868C0.720123 5.44129 0.404053 6.20435 0.404053 7V17C0.404053 17.7956 0.720123 18.5587 1.28273 19.1213C1.84534 19.6839 2.6084 20 3.40405 20H11.4041C12.1997 20 12.9628 19.6839 13.5254 19.1213C14.088 18.5587 14.4041 17.7956 14.4041 17V16H15.4041C16.1997 16 16.9628 15.6839 17.5254 15.1213C18.088 14.5587 18.4041 13.7956 18.4041 13V7C18.4041 7 18.4041 7 18.4041 6.94ZM12.4041 3.41L14.9941 6H13.4041C13.1388 6 12.8845 5.89464 12.6969 5.70711C12.5094 5.51957 12.4041 5.26522 12.4041 5V3.41ZM12.4041 17C12.4041 17.2652 12.2987 17.5196 12.1112 17.7071C11.9236 17.8946 11.6693 18 11.4041 18H3.40405C3.13884 18 2.88448 17.8946 2.69695 17.7071C2.50941 17.5196 2.40405 17.2652 2.40405 17V7C2.40405 6.73478 2.50941 6.48043 2.69695 6.29289C2.88448 6.10536 3.13884 6 3.40405 6H4.40405V13C4.40405 13.7956 4.72012 14.5587 5.28273 15.1213C5.84534 15.6839 6.6084 16 7.40405 16H12.4041V17ZM16.4041 13C16.4041 13.2652 16.2987 13.5196 16.1112 13.7071C15.9236 13.8946 15.6693 14 15.4041 14H7.40405C7.13884 14 6.88448 13.8946 6.69695 13.7071C6.50941 13.5196 6.40405 13.2652 6.40405 13V3C6.40405 2.73478 6.50941 2.48043 6.69695 2.29289C6.88448 2.10536 7.13884 2 7.40405 2H10.4041V5C10.4041 5.79565 10.7201 6.55871 11.2827 7.12132C11.8453 7.68393 12.6084 8 13.4041 8H16.4041V13Z" fill="#8896AB"/>
</svg>
