<svg width="60" height="71" viewBox="0 0 60 71" fill="none" xmlns="http://www.w3.org/2000/svg">
<path d="M59.9999 70.3022H0.529785V0.302246H46.695L59.9999 13.6071V70.3022Z" fill="#F6AE02"/>
<path d="M59.9999 13.6071L46.6951 13.6071L46.695 0.302246L59.9999 13.6071Z" fill="#003466"/>
<path d="M37.5536 53.5083H29.9366C29.3613 53.5083 28.8943 54.2408 28.8943 55.1433C28.8943 56.0459 29.3613 56.7784 29.9366 56.7784H37.5536C38.1289 56.7784 38.5959 56.0459 38.5959 55.1433C38.5959 54.2408 38.1289 53.5083 37.5536 53.5083Z" fill="white"/>
<path d="M11.68 56.7784H25.4631C26.0385 56.7784 26.5054 56.0459 26.5054 55.1433C26.5054 54.2408 26.0385 53.5083 25.4631 53.5083H11.68C11.1046 53.5083 10.6377 54.2408 10.6377 55.1433C10.6377 56.0459 11.1046 56.7784 11.68 56.7784Z" fill="white"/>
<path d="M39.3547 47.8803C39.3547 46.9777 38.8878 46.2452 38.3125 46.2452H24.5877C24.0124 46.2452 23.5454 46.9777 23.5454 47.8803C23.5454 48.7828 24.0124 49.5153 24.5877 49.5153H38.3166C38.8878 49.5153 39.3547 48.7828 39.3547 47.8803Z" fill="white"/>
<path d="M11.68 49.5153H20.1141C20.6895 49.5153 21.1564 48.7828 21.1564 47.8803C21.1564 46.9777 20.6895 46.2452 20.1141 46.2452H11.68C11.1046 46.2452 10.6377 46.9777 10.6377 47.8803C10.6377 48.7828 11.1046 49.5153 11.68 49.5153Z" fill="white"/>
<path d="M45.2625 40.6172C45.2625 39.7146 44.7955 38.9821 44.2202 38.9821H30.8831C30.3078 38.9821 29.8409 39.7146 29.8409 40.6172C29.8409 41.5198 30.3078 42.2523 30.8831 42.2523H44.2202C44.7955 42.2523 45.2625 41.5198 45.2625 40.6172Z" fill="white"/>
<path d="M11.68 42.2523H26.4095C26.9849 42.2523 27.4518 41.5198 27.4518 40.6172C27.4518 39.7146 26.9849 38.9821 26.4095 38.9821H11.68C11.1046 38.9821 10.6377 39.7146 10.6377 40.6172C10.6377 41.5198 11.1046 42.2523 11.68 42.2523Z" fill="white"/>
<path d="M49.7358 33.35C49.7358 32.4475 49.2689 31.715 48.6935 31.715H35.2481C34.6728 31.715 34.2058 32.4475 34.2058 33.35C34.2058 34.2526 34.6728 34.9851 35.2481 34.9851H48.6935C49.2689 34.9851 49.7358 34.2526 49.7358 33.35Z" fill="white"/>
<path d="M11.68 34.9851H30.7746C31.3499 34.9851 31.8169 34.2526 31.8169 33.35C31.8169 32.4475 31.3499 31.715 30.7746 31.715H11.68C11.1046 31.715 10.6377 32.4475 10.6377 33.35C10.6377 34.2526 11.1046 34.9851 11.68 34.9851Z" fill="white"/>
<path d="M44.2201 27.722C44.7955 27.722 45.2624 26.9895 45.2624 26.087C45.2624 25.1844 44.7955 24.4519 44.2201 24.4519H23.3745C22.7992 24.4519 22.3322 25.1844 22.3322 26.087C22.3322 26.9895 22.7992 27.722 23.3745 27.722H44.2201Z" fill="white"/>
<path d="M11.68 27.722H18.9051C19.4804 27.722 19.9474 26.9895 19.9474 26.087C19.9474 25.1844 19.4804 24.4519 18.9051 24.4519H11.68C11.1046 24.4519 10.6377 25.1844 10.6377 26.087C10.6377 26.9895 11.1046 27.722 11.68 27.722Z" fill="white"/>
<path d="M28.5483 20.4585H11.68C11.1046 20.4585 10.6377 19.726 10.6377 18.8235C10.6377 17.9209 11.1046 17.1884 11.68 17.1884H28.5483C29.1236 17.1884 29.5905 17.9209 29.5905 18.8235C29.5905 19.726 29.1236 20.4585 28.5483 20.4585Z" fill="white"/>
<path d="M45.1911 64.0419H37.1364C36.561 64.0419 36.0941 63.3094 36.0941 62.4069C36.0941 61.5043 36.561 60.7718 37.1364 60.7718H45.1911C45.7665 60.7718 46.2334 61.5043 46.2334 62.4069C46.2334 63.3094 45.7665 64.0419 45.1911 64.0419Z" fill="white"/>
<path d="M32.6632 64.0419H11.68C11.1046 64.0419 10.6377 63.3094 10.6377 62.4069C10.6377 61.5043 11.1046 60.7718 11.68 60.7718H32.6632C33.2385 60.7718 33.7055 61.5043 33.7055 62.4069C33.7055 63.3094 33.2385 64.0419 32.6632 64.0419Z" fill="white"/>
</svg>
