<svg width="60" height="71" viewBox="0 0 60 71" fill="none" xmlns="http://www.w3.org/2000/svg">
<path d="M59.4621 70.3022H0V0.302246H46.1591L59.4621 13.6053V70.3022Z" fill="#F6AE02"/>
<path d="M59.4621 13.6053H46.1592L46.1591 0.302246L59.4621 13.6053Z" fill="#003466"/>
<path d="M47.7286 62.7072H11.743C10.8368 62.7072 10.1082 61.9785 10.1082 61.0723V25.0867C10.1082 24.1805 10.8368 23.4519 11.743 23.4519C12.6492 23.4519 13.3779 24.1805 13.3779 25.0867V59.4374H47.7286C48.6348 59.4374 49.3635 60.1661 49.3635 61.0723C49.3635 61.9785 48.6254 62.7072 47.7286 62.7072Z" fill="white"/>
<path d="M29.7358 34.4288H19.9547V53.0008H29.7358V34.4288Z" fill="white"/>
<path d="M47.7286 25.0867H37.9475V53.0008H47.7286V25.0867Z" fill="white"/>
</svg>
