<svg width="60" height="71" viewBox="0 0 60 71" fill="none" xmlns="http://www.w3.org/2000/svg">
<path d="M59.9999 70.3022H0.529785V0.302246H46.695L59.9999 13.6071V70.3022Z" fill="#F6AE02"/>
<path d="M59.9999 13.6071H46.695L46.695 0.302246L59.9999 13.6071Z" fill="#003466"/>
<path d="M48.2554 25.09H12.265V61.0804H48.2554V25.09Z" fill="white"/>
<path d="M19.45 33.9008H41.0797C41.986 33.9008 42.7148 33.172 42.7148 32.2657C42.7148 31.3594 41.9766 30.6306 41.0797 30.6306H19.45C18.5437 30.6306 17.8149 31.3594 17.8149 32.2657C17.8149 33.172 18.5437 33.9008 19.45 33.9008Z" fill="#042F51"/>
<path d="M41.0797 37.8436H19.45C18.5437 37.8436 17.8149 38.5724 17.8149 39.4787C17.8149 40.385 18.5437 41.1137 19.45 41.1137H41.0797C41.986 41.1137 42.7148 40.385 42.7148 39.4787C42.7148 38.5724 41.9767 37.8436 41.0797 37.8436Z" fill="#042F51"/>
<path d="M41.0797 45.0473H19.45C18.5437 45.0473 17.8149 45.7761 17.8149 46.6824C17.8149 47.5887 18.5437 48.3174 19.45 48.3174H41.0797C41.986 48.3174 42.7148 47.5887 42.7148 46.6824C42.7148 45.7761 41.9767 45.0473 41.0797 45.0473Z" fill="#042F51"/>
<path d="M41.0797 52.2603H19.45C18.5437 52.2603 17.8149 52.9891 17.8149 53.8954C17.8149 54.8017 18.5437 55.5305 19.45 55.5305H41.0797C41.986 55.5305 42.7148 54.8017 42.7148 53.8954C42.7148 52.9891 41.9767 52.2603 41.0797 52.2603Z" fill="#042F51"/>
</svg>
