<svg width="60" height="71" viewBox="0 0 60 71" fill="none" xmlns="http://www.w3.org/2000/svg">
<path d="M59.9999 70.3022H0.529785V0.302246H46.695L59.9999 13.6071V70.3022Z" fill="#F6AE02"/>
<path d="M59.9999 13.6071L46.6949 13.6071L46.695 0.302246L59.9999 13.6071Z" fill="#003466"/>
<path d="M48.7648 53.2949V39.3608C48.7648 31.8998 44.8533 28.4274 39.6307 28.4274C35.4222 28.4274 33.5317 30.7866 32.4814 32.438V28.9951H24.5569C24.6583 31.2732 24.5569 53.2875 24.5569 53.2875H32.4886V39.7221C32.4886 38.9996 32.5393 38.2697 32.7494 37.7536C33.3216 36.3012 34.6254 34.8046 36.8202 34.8046C39.6887 34.8046 40.8404 37.0311 40.8404 40.2971V53.2949H48.7648ZM16.1979 25.6922C18.9649 25.6922 20.6889 23.8269 20.6889 21.4972C20.6889 19.1675 18.9649 17.3023 16.2486 17.3023C13.5323 17.3023 11.7648 19.1085 11.7648 21.4899C11.7648 23.8712 13.4888 25.6848 16.1472 25.6848L16.1979 25.6922ZM20.1601 53.2949V29.0098H12.2357V53.3023L20.1601 53.2949Z" fill="white"/>
</svg>
