<svg width="242" height="54" viewBox="0 0 242 54" fill="none" xmlns="http://www.w3.org/2000/svg">
<g clip-path="url(#clip0_164_1692)">
<path d="M74.9066 34.915L71.9239 29.7101H71.1633V34.915H67.8306V21.1331H73.5232C74.6145 21.1331 75.5377 21.3214 76.291 21.698C77.0443 22.0746 77.6101 22.5918 77.9868 23.2477C78.3634 23.9045 78.5517 24.655 78.5517 25.4992C78.5517 26.5005 78.2752 27.3511 77.7231 28.053C77.171 28.7548 76.3682 29.2361 75.3154 29.4952L78.5903 34.9141H74.9066V34.915ZM71.1642 27.4292H73.2302C73.8925 27.4292 74.3803 27.2832 74.6926 26.9901C75.004 26.698 75.1602 26.2663 75.1602 25.694C75.1602 25.1483 75.0013 24.7193 74.6825 24.407C74.3637 24.0947 73.8796 23.9394 73.2302 23.9394H71.1642V27.4292Z" fill="#003466"/>
<path d="M90.4624 30.0804H82.9179C82.9564 30.8989 83.165 31.4878 83.5416 31.8451C83.9182 32.2024 84.3996 32.3816 84.9838 32.3816C85.478 32.3816 85.8868 32.2585 86.212 32.0114C86.5372 31.7643 86.7512 31.4464 86.855 31.056H90.3834C90.2401 31.8231 89.9287 32.5083 89.4474 33.1128C88.9669 33.7172 88.356 34.1922 87.6147 34.5357C86.8743 34.8802 86.0485 35.052 85.1391 35.052C84.0735 35.052 83.1282 34.8278 82.3024 34.3796C81.4766 33.9313 80.8308 33.2846 80.3632 32.4404C79.8956 31.5952 79.6614 30.6077 79.6614 29.4769C79.6614 28.3332 79.892 27.3421 80.3531 26.5043C80.8142 25.6656 81.4609 25.0226 82.2923 24.5743C83.1236 24.126 84.0726 23.9019 85.1381 23.9019C86.2166 23.9019 87.1655 24.1232 87.984 24.5642C88.8025 25.006 89.4363 25.627 89.8846 26.4262C90.3329 27.2254 90.557 28.1449 90.557 29.1848C90.5598 29.4567 90.5276 29.7562 90.4624 30.0804ZM86.6125 27.0692C86.2157 26.7119 85.7251 26.5328 85.1409 26.5328C84.53 26.5328 84.023 26.7146 83.6206 27.0784C83.2173 27.4422 82.9904 27.975 82.9381 28.6768H87.1876C87.2004 27.9621 87.0084 27.4266 86.6125 27.0692Z" fill="#003466"/>
<path d="M99.5566 24.9344C100.382 25.6233 100.899 26.5328 101.106 27.6636H97.9877C97.8967 27.2217 97.6919 26.8745 97.374 26.621C97.0553 26.3674 96.6557 26.2406 96.1752 26.2406C95.7977 26.2406 95.5129 26.3224 95.3173 26.4841C95.1225 26.6467 95.0251 26.8772 95.0251 27.1758C95.0251 27.5138 95.2033 27.7674 95.5607 27.9364C95.918 28.1054 96.4802 28.2745 97.2473 28.4435C98.0786 28.6382 98.7611 28.8366 99.2939 29.0378C99.8267 29.2399 100.288 29.5679 100.678 30.0226C101.068 30.4773 101.263 31.0882 101.263 31.8552C101.263 32.4789 101.094 33.032 100.756 33.5124C100.418 33.9937 99.9305 34.3704 99.2939 34.6432C98.6573 34.916 97.9031 35.0529 97.0323 35.0529C95.5634 35.0529 94.3876 34.7286 93.5039 34.0783C92.6202 33.4288 92.081 32.4992 91.8862 31.2903H95.1023C95.1537 31.7578 95.3522 32.1161 95.6966 32.3623C96.0411 32.6094 96.4857 32.7325 97.0323 32.7325C97.4089 32.7325 97.6955 32.6443 97.8903 32.4688C98.085 32.2934 98.1824 32.0628 98.1824 31.7771C98.1824 31.4005 98.0033 31.1304 97.6459 30.9678C97.2886 30.8052 96.7071 30.6335 95.9015 30.4516C95.0959 30.2825 94.4326 30.1007 93.9127 29.9059C93.3928 29.7112 92.9445 29.3961 92.5678 28.9607C92.1912 28.5252 92.0029 27.9309 92.0029 27.1767C92.0029 26.2021 92.3731 25.4121 93.1144 24.8085C93.8548 24.2041 94.9011 23.9019 96.2533 23.9019C97.6294 23.9009 98.7308 24.2454 99.5566 24.9344Z" fill="#003466"/>
<path d="M113.933 24.0378V34.9151H110.58V32.9465C110.268 33.5831 109.803 34.0902 109.186 34.4669C108.569 34.8435 107.851 35.0318 107.032 35.0318C105.785 35.0318 104.794 34.6157 104.06 33.7843C103.326 32.953 102.958 31.8093 102.958 30.3533V24.0378H106.273V29.9445C106.273 30.6849 106.464 31.26 106.848 31.6697C107.231 32.0794 107.747 32.2833 108.397 32.2833C109.073 32.2833 109.606 32.0693 109.996 31.6403C110.385 31.2113 110.581 30.6004 110.581 29.8077V24.0378H113.933Z" fill="#003466"/>
<path d="M133.485 25.1585C134.252 25.9843 134.635 27.1308 134.635 28.5996V34.916H131.321V28.9901C131.321 28.3011 131.135 27.7655 130.765 27.3816C130.395 26.9985 129.89 26.8065 129.254 26.8065C128.591 26.8065 128.068 27.0114 127.685 27.4201C127.302 27.8298 127.11 28.4049 127.11 29.1453V34.9151H123.776V28.9891C123.776 28.3002 123.594 27.7646 123.23 27.3806C122.867 26.9976 122.366 26.8056 121.729 26.8056C121.067 26.8056 120.54 27.0077 120.15 27.41C119.761 27.8133 119.565 28.3911 119.565 29.1453V34.9151H116.231V24.0378H119.565V25.8897C119.851 25.2789 120.29 24.7984 120.881 24.4475C121.472 24.0966 122.164 23.9211 122.957 23.9211C123.788 23.9211 124.523 24.1131 125.159 24.4962C125.796 24.8793 126.277 25.4286 126.602 26.1433C126.978 25.4681 127.495 24.9279 128.151 24.5256C128.807 24.1232 129.532 23.9211 130.325 23.9211C131.666 23.9202 132.718 24.3336 133.485 25.1585Z" fill="#003466"/>
<path d="M147.091 30.0804H139.547C139.585 30.8989 139.794 31.4878 140.171 31.8451C140.547 32.2024 141.028 32.3816 141.613 32.3816C142.107 32.3816 142.516 32.2585 142.841 32.0114C143.166 31.7643 143.38 31.4464 143.484 31.056H147.012C146.869 31.8231 146.558 32.5083 146.076 33.1128C145.596 33.7172 144.985 34.1922 144.244 34.5357C143.503 34.8802 142.677 35.052 141.768 35.052C140.702 35.052 139.757 34.8278 138.931 34.3796C138.105 33.9313 137.46 33.2846 136.992 32.4404C136.525 31.5952 136.29 30.6077 136.29 29.4769C136.29 28.3332 136.521 27.3421 136.982 26.5043C137.443 25.6656 138.09 25.0226 138.921 24.5743C139.753 24.126 140.701 23.9019 141.767 23.9019C142.846 23.9019 143.794 24.1232 144.613 24.5642C145.431 25.006 146.065 25.627 146.514 26.4262C146.962 27.2254 147.186 28.1449 147.186 29.1848C147.19 29.4567 147.157 29.7562 147.091 30.0804ZM143.241 27.0692C142.845 26.7119 142.354 26.5328 141.77 26.5328C141.159 26.5328 140.652 26.7146 140.25 27.0784C139.846 27.4422 139.619 27.975 139.567 28.6768H143.816C143.829 27.9621 143.638 27.4266 143.241 27.0692Z" fill="#003466"/>
<path d="M157.462 32.3999H152.296L151.438 34.915H147.929L152.978 21.2305H156.818L161.867 34.915H158.319L157.462 32.3999ZM156.604 29.8664L154.889 24.7984L153.154 29.8664H156.604Z" fill="#003466"/>
<path d="M170.416 24.9344C171.241 25.6233 171.758 26.5328 171.966 27.6636H168.847C168.756 27.2217 168.551 26.8745 168.233 26.621C167.914 26.3674 167.515 26.2406 167.034 26.2406C166.658 26.2406 166.372 26.3224 166.176 26.4841C165.982 26.6467 165.884 26.8772 165.884 27.1758C165.884 27.5138 166.063 27.7674 166.421 27.9364C166.778 28.1054 167.34 28.2745 168.107 28.4435C168.939 28.6382 169.621 28.8366 170.154 29.0378C170.687 29.2399 171.148 29.5679 171.538 30.0226C171.928 30.4773 172.124 31.0882 172.124 31.8552C172.124 32.4789 171.955 33.032 171.616 33.5124C171.278 33.9937 170.791 34.3704 170.154 34.6432C169.517 34.916 168.763 35.0529 167.892 35.0529C166.424 35.0529 165.248 34.7286 164.364 34.0783C163.48 33.4288 162.941 32.4992 162.746 31.2903H165.962C166.014 31.7578 166.212 32.1161 166.557 32.3623C166.901 32.6094 167.346 32.7325 167.892 32.7325C168.269 32.7325 168.556 32.6443 168.75 32.4688C168.945 32.2934 169.043 32.0628 169.043 31.7771C169.043 31.4005 168.863 31.1304 168.506 30.9678C168.149 30.8052 167.567 30.6335 166.762 30.4516C165.956 30.2825 165.293 30.1007 164.773 29.9059C164.253 29.7112 163.805 29.3961 163.428 28.9607C163.051 28.5252 162.863 27.9309 162.863 27.1767C162.863 26.2021 163.233 25.4121 163.975 24.8085C164.715 24.2041 165.761 23.9019 167.113 23.9019C168.489 23.9009 169.59 24.2454 170.416 24.9344Z" fill="#003466"/>
<path d="M181.235 24.9344C182.06 25.6233 182.577 26.5328 182.785 27.6636H179.666C179.575 27.2217 179.37 26.8745 179.053 26.621C178.734 26.3674 178.334 26.2406 177.854 26.2406C177.477 26.2406 177.191 26.3224 176.996 26.4841C176.801 26.6467 176.704 26.8772 176.704 27.1758C176.704 27.5138 176.882 27.7674 177.24 27.9364C177.597 28.1054 178.16 28.2745 178.927 28.4435C179.758 28.6382 180.441 28.8366 180.973 29.0378C181.506 29.2399 181.967 29.5679 182.358 30.0226C182.747 30.4773 182.943 31.0882 182.943 31.8552C182.943 32.4789 182.774 33.032 182.436 33.5124C182.098 33.9937 181.61 34.3704 180.973 34.6432C180.337 34.916 179.583 35.0529 178.712 35.0529C177.243 35.0529 176.067 34.7286 175.183 34.0783C174.3 33.4288 173.76 32.4992 173.566 31.2903H176.782C176.833 31.7578 177.032 32.1161 177.376 32.3623C177.721 32.6094 178.165 32.7325 178.712 32.7325C179.088 32.7325 179.375 32.6443 179.57 32.4688C179.764 32.2934 179.862 32.0628 179.862 31.7771C179.862 31.4005 179.683 31.1304 179.325 30.9678C178.968 30.8052 178.387 30.6335 177.581 30.4516C176.775 30.2825 176.112 30.1007 175.592 29.9059C175.072 29.7112 174.624 29.3961 174.247 28.9607C173.871 28.5252 173.682 27.9309 173.682 27.1767C173.682 26.2021 174.053 25.4121 174.794 24.8085C175.534 24.2041 176.581 23.9019 177.933 23.9019C179.308 23.9009 180.409 24.2454 181.235 24.9344Z" fill="#003466"/>
<path d="M185.026 19.7194C185.39 19.3878 185.871 19.2224 186.469 19.2224C187.067 19.2224 187.547 19.3878 187.911 19.7194C188.275 20.051 188.456 20.4699 188.456 20.977C188.456 21.4712 188.275 21.8836 187.911 22.2153C187.547 22.5469 187.066 22.7122 186.469 22.7122C185.871 22.7122 185.39 22.5469 185.026 22.2153C184.663 21.8836 184.481 21.4712 184.481 20.977C184.481 20.4699 184.663 20.051 185.026 19.7194ZM188.126 24.0378V34.9151H184.792V24.0378H188.126Z" fill="#003466"/>
<path d="M197.688 24.9344C198.512 25.6233 199.03 26.5328 199.237 27.6636H196.119C196.028 27.2217 195.823 26.8745 195.505 26.621C195.186 26.3674 194.787 26.2406 194.306 26.2406C193.93 26.2406 193.644 26.3224 193.448 26.4841C193.253 26.6467 193.156 26.8772 193.156 27.1758C193.156 27.5138 193.334 27.7674 193.693 27.9364C194.05 28.1054 194.612 28.2745 195.379 28.4435C196.21 28.6382 196.893 28.8366 197.426 29.0378C197.959 29.2399 198.42 29.5679 198.81 30.0226C199.2 30.4773 199.395 31.0882 199.395 31.8552C199.395 32.4789 199.226 33.032 198.888 33.5124C198.55 33.9937 198.062 34.3704 197.426 34.6432C196.789 34.916 196.035 35.0529 195.164 35.0529C193.695 35.0529 192.519 34.7286 191.636 34.0783C190.752 33.4288 190.213 32.4992 190.018 31.2903H193.234C193.286 31.7578 193.484 32.1161 193.828 32.3623C194.173 32.6094 194.618 32.7325 195.164 32.7325C195.541 32.7325 195.827 32.6443 196.022 32.4688C196.217 32.2934 196.314 32.0628 196.314 31.7771C196.314 31.4005 196.135 31.1304 195.778 30.9678C195.42 30.8052 194.839 30.6335 194.033 30.4516C193.228 30.2825 192.564 30.1007 192.045 29.9059C191.525 29.7112 191.076 29.3961 190.7 28.9607C190.323 28.5252 190.135 27.9309 190.135 27.1767C190.135 26.2021 190.505 25.4121 191.246 24.8085C191.987 24.2041 193.033 23.9019 194.385 23.9019C195.76 23.9009 196.862 24.2454 197.688 24.9344Z" fill="#003466"/>
<path d="M207.405 32.049V34.9151H205.904C204.63 34.9151 203.639 34.6 202.931 33.9698C202.223 33.3397 201.868 32.297 201.868 30.841V26.8451H200.406V24.0378H201.868V21.3665H205.202V24.0369H207.385V26.8441H205.202V30.8989C205.202 31.3279 205.29 31.6264 205.465 31.7955C205.641 31.9645 205.937 32.049 206.353 32.049H207.405Z" fill="#003466"/>
<path d="M215.553 24.4658C216.151 24.8425 216.593 25.356 216.878 26.0054V24.0378H220.193V34.915H216.878V32.9465C216.593 33.5968 216.151 34.1094 215.553 34.4861C214.955 34.8636 214.24 35.051 213.409 35.051C212.512 35.051 211.709 34.8269 211.001 34.3786C210.293 33.9303 209.734 33.2836 209.325 32.4394C208.915 31.5943 208.711 30.6068 208.711 29.4759C208.711 28.3323 208.916 27.3411 209.325 26.5033C209.733 25.6655 210.293 25.0216 211.001 24.5733C211.709 24.125 212.512 23.9009 213.409 23.9009C214.24 23.9009 214.955 24.0892 215.553 24.4658ZM212.756 27.5266C212.32 27.9942 212.102 28.6446 212.102 29.4759C212.102 30.3073 212.32 30.9577 212.756 31.4252C213.191 31.8928 213.766 32.1271 214.481 32.1271C215.183 32.1271 215.758 31.8864 216.206 31.4059C216.654 30.9255 216.878 30.2825 216.878 29.4759C216.878 28.6575 216.654 28.0108 216.206 27.5358C215.758 27.0618 215.183 26.8239 214.481 26.8239C213.766 26.8248 213.191 27.0591 212.756 27.5266Z" fill="#003466"/>
<path d="M232.366 25.1678C233.1 25.9991 233.468 27.1437 233.468 28.5988V34.9152H230.134V28.9892C230.134 28.2617 229.942 27.693 229.559 27.2833C229.176 26.8736 228.665 26.6697 228.028 26.6697C227.352 26.6697 226.817 26.8837 226.42 27.3127C226.023 27.7417 225.826 28.3526 225.826 29.1454V34.9152H222.492V24.0379H225.826V26.0267C226.137 25.3772 226.602 24.8637 227.219 24.4871C227.836 24.1104 228.561 23.9221 229.393 23.9221C230.641 23.9203 231.632 24.3364 232.366 25.1678Z" fill="#003466"/>
<path d="M241.83 32.049V34.9151H240.329C239.055 34.9151 238.065 34.6 237.357 33.9698C236.649 33.3397 236.294 32.297 236.294 30.841V26.8451H234.832V24.0378H236.294V21.3665H239.628V24.0369H241.811V26.8441H239.628V30.8989C239.628 31.3279 239.716 31.6264 239.891 31.7955C240.067 31.9645 240.363 32.049 240.779 32.049H241.83Z" fill="#003466"/>
</g>
<path d="M32.1784 1.41764C30.3209 0.827716 28.3656 0.534668 26.4161 0.534668C24.4666 0.534668 22.5113 0.827716 20.6538 1.41764C17.7267 2.34659 15.0717 4.01677 13.1452 6.42819C11.1612 8.91432 10.1893 11.8793 10.0475 15.0358L10.0264 15.4993V15.8594C10.0264 17.7939 10.3254 19.7245 10.8161 21.5958C10.9427 22.0823 11.0845 22.565 11.2359 23.0438L11.2417 23.0649L11.2455 23.0764C12.5951 27.7441 14.0941 32.3773 15.8634 36.9052C16.8621 39.4622 17.949 41.9924 19.2046 44.4364C20.2743 46.5164 21.4953 48.6176 22.9982 50.4161C23.8493 51.4331 24.825 52.341 25.9081 53.1052L26.4161 53.4653L26.9241 53.1052C28.0071 52.341 28.9829 51.4312 29.834 50.4161C31.3368 48.6195 32.5598 46.5164 33.6295 44.4383C34.887 41.9962 35.9739 39.466 36.9726 36.909C38.7439 32.3754 40.2544 27.7403 41.5924 23.0611L41.5982 23.0419L41.6001 23.0343C41.7515 22.5593 41.8895 22.0785 42.0161 21.5958C42.5049 19.7265 42.8058 17.7958 42.8058 15.8594C42.8058 12.4137 41.8531 9.14224 39.6851 6.42819C37.7624 4.01677 35.1055 2.34659 32.1784 1.41764Z" fill="#003466"/>
<path d="M51.1389 34.4114C50.6922 33.9459 50.213 33.4844 49.7242 33.0477C50.6711 31.7069 51.1178 30.0195 50.9337 28.3704C50.7842 27.0258 50.0232 25.9877 48.6641 25.7023C48.1331 25.5912 47.4603 25.6065 46.9312 25.7521L46.2277 25.9455L46.1242 26.6676C46.036 27.2901 45.852 27.8532 45.5261 28.3914C44.9165 29.4008 43.7568 30.3757 42.8002 31.1993C41.0443 30.3259 38.7843 29.1959 38.5734 29.0714C38.7478 29.2763 37.6245 32.5746 37.6245 32.5746C37.6245 32.5746 39.4686 34.2773 40.6207 35.2656C40.6149 35.3461 40.613 35.4265 40.6111 35.507C40.6073 35.7119 40.613 35.9322 40.6303 36.1582C39.9996 36.5719 39.8999 37.3476 39.8884 38.0525C39.875 38.9239 40.2488 39.9391 40.7472 40.6669C40.3389 41.7184 40.5919 43.0151 41.1651 43.9575L41.2034 44.0188L41.2494 44.0743C42.3018 45.3844 44.581 46.0011 46.1989 46.2272C46.9619 46.3344 47.7881 46.2731 48.4187 45.7866C48.6104 45.6391 48.781 45.4476 48.9075 45.2312C49.3216 45.1546 49.6762 44.9707 50.052 44.6757C50.8647 44.0341 51.2865 42.9059 51.3497 41.8678L51.6181 41.5824C52.7817 40.3451 52.9331 38.606 52.7817 36.9971C52.6954 36.0796 51.7561 35.0549 51.1389 34.4114Z" fill="#003466"/>
<path d="M38.5758 29.0718C38.5719 29.0679 38.568 29.062 38.564 29.0601C38.5522 29.0581 38.5581 29.062 38.5758 29.0718Z" fill="#003466"/>
<path fill-rule="evenodd" clip-rule="evenodd" d="M48.5429 33.4959C47.9008 33.8158 47.4848 33.72 47.4848 33.72C48.8976 32.7585 50.0842 30.803 49.8273 28.493C49.5704 26.1851 47.2279 26.8248 47.2279 26.8248C46.8752 29.2937 45.3666 30.4161 43.1525 32.3716C40.9385 34.3272 41.966 37.2462 41.966 37.2462C41.2279 36.8057 41.019 37.0604 41.0037 38.0717C40.9883 39.0811 41.6938 40.0752 41.6938 40.0752C41.642 37.7001 42.8171 37.3343 42.8171 37.3343C42.7212 35.8269 42.9934 34.785 44.4867 34.3195C45.9781 33.8541 47.7282 35.0416 48.2247 35.3462C48.7212 35.6507 48.3378 36.2272 48.6426 36.5164C48.9474 36.8057 49.6854 36.9819 49.6854 36.9819C47.8433 37.2845 46.4918 36.4686 46.4918 36.4686C47.3257 36.5337 47.711 36.1487 47.711 36.1487C46.8925 35.2198 44.4062 34.5609 43.9404 35.3634C43.4746 36.164 43.9078 37.6714 44.1973 38.5371C44.4867 39.4029 45.5449 39.627 46.4267 40.012C47.3084 40.3969 47.18 41.278 47.18 41.278C46.8273 40.4927 45.2228 40.2207 44.3564 39.8989C43.4899 39.5791 42.9934 37.9759 42.9934 37.9759C41.9027 39.7879 43.0088 41.4868 43.3462 42.0001C43.6835 42.5134 44.966 42.7701 45.4318 42.8333C45.8976 42.8965 46.2829 43.6664 46.2829 43.6664C45.8497 43.3772 45.3685 43.2336 44.7743 43.2489C44.18 43.2642 43.4899 42.929 42.9283 42.6877C42.3666 42.4464 41.8203 40.9888 41.8203 40.9888C41.3238 42.0786 42.1174 43.3772 42.1174 43.3772C42.9033 44.356 44.8605 44.9172 46.3538 45.124C47.8452 45.3328 48.0062 44.5226 48.0062 44.5226C47.734 44.3311 47.3238 44.4422 47.3238 44.4422C48.2707 43.8178 48.4471 44.5226 49.3615 43.8005C50.2758 43.0784 50.2433 41.5232 50.2433 41.5232C49.7621 41.458 49.3921 41.6515 49.3921 41.6515C49.8733 40.8183 50.8049 40.8183 50.8049 40.8183C51.7998 39.761 51.7672 38.1253 51.6714 37.0987C51.5755 36.0759 48.5429 33.4959 48.5429 33.4959Z" fill="white"/>
<path fill-rule="evenodd" clip-rule="evenodd" d="M14.2568 29.0718C14.2746 29.062 14.2805 29.0561 14.2687 29.0601C14.2647 29.064 14.2608 29.0679 14.2568 29.0718Z" fill="#003466"/>
<path fill-rule="evenodd" clip-rule="evenodd" d="M14.2571 29.0714C14.0463 29.1959 11.7862 30.3259 10.0303 31.1993C9.07566 30.3757 7.914 29.4008 7.30442 28.3914C6.97854 27.8513 6.79644 27.2901 6.70634 26.6676L6.60283 25.9455L5.89931 25.7521C5.37024 25.6065 4.6974 25.5912 4.16641 25.7023C2.80731 25.9858 2.04629 27.0239 1.89677 28.3704C1.71274 30.0195 2.15939 31.7069 3.10635 33.0477C2.61753 33.4844 2.1383 33.9459 1.69166 34.4114C1.07441 35.0549 0.135111 36.0796 0.0488495 36.999C-0.102588 38.6079 0.0488495 40.347 1.21242 41.5844L1.48079 41.8697C1.54597 42.9079 1.96578 44.0379 2.77855 44.6776C3.15427 44.9745 3.5089 45.1565 3.92296 45.2331C4.04948 45.4495 4.22008 45.6392 4.41178 45.7885C5.04245 46.275 5.86864 46.3363 6.63158 46.2291C8.24947 46.0031 10.5287 45.3863 11.5811 44.0762L11.6271 44.0207L11.6654 43.9594C12.2405 43.019 12.4935 41.7203 12.0833 40.6688C12.5817 39.9429 12.9555 38.9259 12.9421 38.0544C12.9306 37.3495 12.8309 36.5738 12.2003 36.1601C12.2175 35.9341 12.2233 35.7138 12.2194 35.5089C12.2175 35.4284 12.2137 35.348 12.2098 35.2675C13.3619 34.2792 15.206 32.5765 15.206 32.5765C15.206 32.5765 14.0827 29.2782 14.2571 29.0714Z" fill="#003466"/>
<path fill-rule="evenodd" clip-rule="evenodd" d="M11.8301 38.0717C11.8148 37.0623 11.6058 36.8056 10.8678 37.2462C10.8678 37.2462 11.8953 34.3291 9.68125 32.3716C7.4672 30.416 5.95858 29.2936 5.60587 26.8248C5.60587 26.8248 3.26338 26.1831 3.00651 28.493C2.74964 30.801 3.93622 32.7566 5.349 33.72C5.349 33.72 4.93111 33.8158 4.29085 33.4959C4.29085 33.4959 1.25827 36.0778 1.16243 37.1025C1.06658 38.1291 1.03399 39.7629 2.02888 40.8221C2.02888 40.8221 2.95859 40.8221 3.44165 41.6553C3.44165 41.6553 3.07169 41.4638 2.59054 41.527C2.59054 41.527 2.55795 43.0822 3.47233 43.8043C4.3867 44.5264 4.56306 43.8196 5.51002 44.446C5.51002 44.446 5.10171 44.333 4.82759 44.5264C4.82759 44.5264 4.98862 45.3366 6.47999 45.1278C7.97136 44.9191 9.93045 44.3579 10.7164 43.381C10.7164 43.381 11.51 42.0824 11.0135 40.9926C11.0135 40.9926 10.4672 42.4521 9.90553 42.6915C9.34388 42.9328 8.65378 43.268 8.05953 43.2527C7.46529 43.2374 6.98414 43.381 6.55091 43.6703C6.55091 43.6703 6.93621 42.9003 7.40203 42.8371C7.86784 42.7739 9.15027 42.5172 9.48764 42.0039C9.82502 41.4906 10.9311 39.7917 9.84036 37.9798C9.84036 37.9798 9.34388 39.5829 8.47742 39.9028C7.61097 40.2226 6.0065 40.4965 5.65379 41.2818C5.65379 41.2818 5.52536 40.4008 6.40714 40.0158C7.28893 39.6308 8.34899 39.4067 8.63845 38.5409C8.9279 37.6752 9.36113 36.1678 8.89531 35.3672C8.4295 34.5647 5.94325 35.2236 5.12472 36.1525C5.12472 36.1525 5.51002 36.5375 6.34388 36.4724C6.34388 36.4724 4.99245 37.2883 3.15028 36.9857C3.15028 36.9857 3.8883 36.8095 4.19309 36.5203C4.49788 36.231 4.11258 35.6545 4.61098 35.35C5.10747 35.0454 6.85762 33.8598 8.34899 34.3234C9.84036 34.7888 10.1145 35.8307 10.0186 37.3381C10.0186 37.3381 11.1937 37.7039 11.142 40.079C11.14 40.0751 11.8474 39.0811 11.8301 38.0717Z" fill="white"/>
<path fill-rule="evenodd" clip-rule="evenodd" d="M12.0833 22.8943C12.0833 22.8943 17.1861 40.5787 21.3133 46.003C21.3133 46.003 23.3452 46.6542 26.4161 46.6772C29.487 46.6542 31.519 46.003 31.519 46.003C35.6461 40.5787 40.749 22.8943 40.749 22.8943C36.1867 25.2923 31.0666 26.1887 26.4161 26.363C21.7657 26.1887 16.6455 25.2923 12.0833 22.8943Z" fill="#F6AE02"/>
<path fill-rule="evenodd" clip-rule="evenodd" d="M26.4161 1.51538C16.9829 1.51538 7.54971 8.64239 12.0832 22.8945C16.6455 25.2925 21.7656 26.1889 26.4161 26.3632C31.0666 26.1889 36.1867 25.2925 40.749 22.8945C45.2844 8.64048 35.8493 1.51538 26.4161 1.51538Z" fill="#FDC58F"/>
<path fill-rule="evenodd" clip-rule="evenodd" d="M26.416 46.6774C29.4869 46.6544 31.5189 46.0032 31.5189 46.0032C33.5604 43.3198 35.8415 37.635 37.6243 32.5747C37.6243 32.5747 38.7342 29.3224 38.5789 29.0734C38.5559 29.06 38.5502 29.0562 38.5636 29.06C38.5693 29.0619 38.5751 29.0677 38.5789 29.0734C38.6115 29.0926 38.6824 29.129 38.7821 29.1826C39.9725 25.5817 40.7489 22.8926 40.7489 22.8926C36.1866 25.2906 31.0665 26.187 26.416 26.3613V46.6774Z" fill="#F6AE02"/>
<path d="M33.6045 25.4112C31.1757 25.9552 28.7374 26.2233 26.4141 26.3114L26.3623 26.3133V26.3651V46.6792V46.7329H26.416C29.4965 46.7099 31.5284 46.0587 31.5361 46.0568L31.5629 46.0376C32.5866 44.6911 33.6696 42.5957 34.7182 40.2034C35.7668 37.8131 36.7846 35.1259 37.676 32.5957C37.6779 32.588 38.6191 29.8318 38.6421 29.173C38.669 29.1883 38.7092 29.2074 38.7591 29.2342L38.8147 29.263L38.8338 29.2036C40.0243 25.6008 40.7987 22.9193 40.8006 22.9117L40.8351 22.791L40.7239 22.8485C38.4485 24.0437 36.0313 24.8653 33.6045 25.4112ZM38.7514 29.1078L38.6805 29.0714C38.6536 29.0561 38.6306 29.0446 38.6153 29.0351C38.6134 29.0331 38.6096 29.0293 38.6076 29.0274C38.6 29.0197 38.5904 29.0159 38.5808 29.0121C38.5367 28.9795 38.4984 28.9738 38.4754 28.9833C38.4217 28.9757 38.414 28.9929 38.4505 29.0331C38.4562 29.058 38.4811 29.0849 38.529 29.104C38.5329 29.1059 38.5367 29.1097 38.5405 29.1117C38.6517 29.4009 37.5898 32.5191 37.5783 32.5574C36.6869 35.0856 35.6709 37.771 34.6243 40.1594C33.5815 42.5363 32.5061 44.6183 31.492 45.9572C31.3003 46.0165 29.3546 46.595 26.4735 46.6237V26.4129C28.7853 26.3229 31.214 26.0548 33.6313 25.5127C36.0275 24.9745 38.414 24.1682 40.6664 22.9979C40.5016 23.5533 39.7866 25.9762 38.7514 29.1078Z" fill="#231F20"/>
<path d="M33.4762 24.8385C31.0934 25.3729 28.6973 25.6353 26.4161 25.7234C24.135 25.6372 21.7408 25.3729 19.3561 24.8385C16.9772 24.3042 14.6098 23.4997 12.3804 22.3275L11.05 21.6284L11.4679 23.0726C13.6609 30.6631 18.0583 44.2276 23.1842 50.3529C23.9318 51.2454 24.8749 52.1706 26.0481 52.9999L26.4161 53.2604L26.7842 52.9999C27.9574 52.1706 28.9005 51.2454 29.6481 50.3529C34.772 44.2276 39.1714 30.6612 41.3643 23.0726L41.7822 21.6284L40.4519 22.3275C38.2225 23.4997 35.8551 24.3061 33.4762 24.8385ZM31.1356 45.4477C30.5797 45.6009 28.8391 46.0204 26.4161 46.0395C23.9931 46.0204 22.2526 45.6009 21.6967 45.4477C18.3574 40.8758 14.3855 28.3168 13.1127 24.1107C15.0468 24.9937 17.0596 25.6334 19.0762 26.0854C21.5491 26.6409 24.0315 26.9129 26.3931 27.001H26.4391C28.8008 26.9129 31.2832 26.6409 33.7561 26.0854C35.7746 25.6334 37.7854 24.9918 39.7196 24.1107C38.4468 28.3187 34.4749 40.8777 31.1356 45.4477Z" fill="#003466"/>
<path d="M27.0564 26.3633H25.7778V46.9533H27.0564V26.3633Z" fill="#003466"/>
<path fill-rule="evenodd" clip-rule="evenodd" d="M26.4161 15.593C23.4928 15.5949 18.8347 15.8918 17.8801 17.7114C16.544 20.2607 19.5804 24.8805 26.4161 24.9572C33.2519 24.8805 36.2883 20.2626 34.9522 17.7114C33.9976 15.8918 29.3394 15.5949 26.4161 15.593Z" fill="#003466"/>
<path fill-rule="evenodd" clip-rule="evenodd" d="M26.8379 20.5499C26.8379 20.5499 27.3267 21.2758 27.3267 21.8657C25.3945 19.688 21.1753 19.4141 20.698 22.3158C22.3619 23.3999 24.4782 23.827 26.4143 23.8519C28.3274 23.8289 30.4168 23.4095 32.0711 22.356C32.6443 18.941 27.0392 19.7033 26.8379 20.5499Z" fill="#FF9495"/>
<path d="M20.8967 14.5451C23.4633 14.2926 25.339 12.009 25.0863 9.44447C24.8336 6.88 22.548 5.0058 19.9815 5.25833C17.4149 5.51086 15.5391 7.79449 15.7919 10.359C16.0446 12.9234 18.3301 14.7976 20.8967 14.5451Z" fill="#FDFDFD"/>
<path d="M20.4392 4.59326C18.9728 4.59326 17.6443 5.18702 16.684 6.14661C15.7236 7.1062 15.1293 8.43353 15.1293 9.89878C15.1293 9.95049 15.1293 10.0022 15.1313 10.0539L11.9702 9.76662L11.8552 11.0384L15.3325 11.3544C15.5836 12.2336 16.0552 13.0208 16.6859 13.6509C17.6463 14.6105 18.9747 15.2043 20.4411 15.2043C21.9076 15.2043 23.236 14.6105 24.1964 13.6509C25.1568 12.6914 25.751 11.364 25.751 9.89878C25.751 8.43353 25.1568 7.1062 24.1964 6.14661C23.2341 5.18893 21.9057 4.59326 20.4392 4.59326ZM23.2878 12.7469C22.5593 13.4747 21.553 13.9248 20.4392 13.9248C19.3274 13.9248 18.321 13.4747 17.5907 12.7469C16.8622 12.0191 16.4118 11.0135 16.4118 9.90069C16.4118 8.78979 16.8622 7.78423 17.5907 7.05448C18.3191 6.32665 19.3255 5.87654 20.4392 5.87654C21.551 5.87654 22.5574 6.32665 23.2878 7.05448C24.0162 7.78232 24.4667 8.78787 24.4667 9.90069C24.4667 11.0116 24.0162 12.0172 23.2878 12.7469Z" fill="#003466"/>
<path d="M32.5748 14.5616C35.1517 14.4608 37.1589 12.2919 37.0581 9.71711C36.9572 7.14233 34.7865 5.13673 32.2096 5.23749C29.6327 5.33824 27.6254 7.5072 27.7263 10.082C27.8271 12.6568 29.9979 14.6624 32.5748 14.5616Z" fill="#FDFDFD"/>
<path d="M37.7031 10.0482C37.705 9.99841 37.705 9.94861 37.705 9.90073C37.705 8.43549 37.1107 7.10815 36.1504 6.14856C35.19 5.18897 33.8615 4.59521 32.3951 4.59521C30.9286 4.59521 29.6002 5.18897 28.6398 6.14856C27.6795 7.10815 27.0852 8.43549 27.0852 9.90073C27.0852 11.366 27.6795 12.6933 28.6398 13.6529C29.6002 14.6125 30.9286 15.2062 32.3951 15.2062C33.8615 15.2062 35.19 14.6125 36.1504 13.6529C36.781 13.0227 37.2545 12.2336 37.5056 11.3506L40.9024 11.0423L40.7874 9.77049L37.7031 10.0482ZM35.2417 12.7469C34.5133 13.4748 33.5069 13.9249 32.3932 13.9249C31.2814 13.9249 30.275 13.4748 29.5446 12.7469C28.8162 12.0191 28.3657 11.0135 28.3657 9.90073C28.3657 8.78983 28.8162 7.78427 29.5446 7.05452C30.2731 6.32669 31.2794 5.87658 32.3932 5.87658C33.505 5.87658 34.5114 6.32669 35.2417 7.05452C35.9702 7.78235 36.4206 8.78791 36.4206 9.90073C36.4206 11.0116 35.9702 12.0172 35.2417 12.7469Z" fill="#003466"/>
<path d="M25.1206 9.57129L25.2835 9.90264L25.4503 9.90456C25.3334 9.81837 25.2069 9.69004 25.1206 9.57129Z" fill="#003466"/>
<path d="M25.1184 9.70153L25.2833 9.90264L25.1203 9.57129L25.1184 9.70153Z" fill="#003466"/>
<path d="M25.1181 9.69963L25.1201 9.56939L24.8325 9.34912L25.1181 9.69963Z" fill="#003466"/>
<path d="M25.0223 9.32593C24.9456 9.34125 24.8613 9.35083 24.8325 9.34891L25.1201 9.56918C25.0491 9.47149 25.007 9.37956 25.0223 9.32593Z" fill="#003466"/>
<path d="M25.1184 9.69958V9.7015L25.1203 9.57125V9.56934L25.1184 9.69958Z" fill="#003466"/>
<path d="M25.1165 9.90082L25.1184 9.70162V9.69971L25.1165 9.90082Z" fill="#003466"/>
<path d="M24.8252 9.33945C24.8194 9.3452 24.8213 9.34711 24.8328 9.34903C24.8616 9.35286 24.9459 9.34137 25.0226 9.32604C25.0073 9.37967 25.0475 9.47161 25.1185 9.56929L25.1204 9.57121C25.2066 9.68996 25.3332 9.81829 25.4501 9.90448L25.2833 9.90256L25.1165 9.90065L24.4686 9.89299C24.4629 10.3335 24.6718 10.5461 25.1089 10.5519C25.3542 10.5557 25.4635 10.4676 25.6322 10.3316C25.845 10.1592 26.4661 9.65548 27.3057 10.3852L28.1434 9.41798C26.4929 7.98721 25.2507 8.99469 24.8252 9.33945Z" fill="#003466"/>
<path d="M25.1165 9.90061L25.2832 9.90253L25.1184 9.70142L25.1165 9.90061Z" fill="#003466"/>
<path fill-rule="evenodd" clip-rule="evenodd" d="M22.0241 8.12134C21.359 8.12134 20.8203 8.91812 20.8203 9.9007C20.8203 10.8833 21.359 11.6801 22.0241 11.6801C22.6893 11.6801 23.228 10.8833 23.228 9.9007C23.228 8.91812 22.6893 8.12134 22.0241 8.12134Z" fill="#003466"/>
<path fill-rule="evenodd" clip-rule="evenodd" d="M30.802 8.12134C30.1368 8.12134 29.5981 8.91812 29.5981 9.9007C29.5981 10.8833 30.1368 11.6801 30.802 11.6801C31.4671 11.6801 32.0058 10.8833 32.0058 9.9007C32.0039 8.91812 31.4652 8.12134 30.802 8.12134Z" fill="#003466"/>
<path d="M32.1038 1.74331C30.277 1.16296 28.3428 0.871826 26.4163 0.871826C24.4898 0.871826 22.5556 1.16296 20.7288 1.74331C17.84 2.66076 15.2291 4.30413 13.3371 6.67533C11.4413 9.04845 10.2719 12.1417 10.2719 15.9533H10.27C10.27 18.0985 10.6438 20.4754 11.4758 23.086L11.7863 23.4595C14.1192 24.6873 16.594 25.5281 19.0783 26.0855C21.5511 26.6409 24.0336 26.9129 26.3952 27.001H26.4412C28.8029 26.9129 31.2853 26.6409 33.7581 26.0855C36.2425 25.5281 38.7172 24.6854 41.0501 23.4595L41.3607 23.086C42.1907 20.4754 42.5664 18.0985 42.5664 15.9533C42.5664 12.1437 41.3952 9.05036 39.4993 6.67342C37.6054 4.30413 34.9946 2.66076 32.1038 1.74331ZM40.2201 22.4482C38.0597 23.5553 35.7728 24.3234 33.4763 24.8386C31.0936 25.373 28.6974 25.6354 26.4163 25.7235C24.1352 25.6373 21.7409 25.373 19.3563 24.8386C17.0598 24.3234 14.7729 23.5553 12.6125 22.4482C11.8822 20.0789 11.5524 17.9127 11.5524 15.9533H11.5505C11.5505 12.4578 12.6144 9.63071 14.3397 7.4702C16.0668 5.30586 18.4611 3.80231 21.116 2.95956C22.8067 2.42326 24.6086 2.15319 26.4182 2.15319C28.2259 2.15319 30.0297 2.42134 31.7204 2.95956C34.3754 3.80231 36.7696 5.30586 38.4968 7.4702C40.2201 9.6288 41.2821 12.4559 41.2821 15.9533C41.2802 17.9146 40.9504 20.0789 40.2201 22.4482Z" fill="#003466"/>
<defs>
<clipPath id="clip0_164_1692">
<rect width="174" height="15.8286" fill="white" transform="translate(67.8306 19.2224)"/>
</clipPath>
</defs>
</svg>
