<svg width="60" height="71" viewBox="0 0 60 71" fill="none" xmlns="http://www.w3.org/2000/svg">
<path d="M59.4622 70.3022H0V0.302246H46.1591L59.4622 13.6053V70.3022Z" fill="#F6AE02"/>
<path d="M59.4622 13.6053H46.159L46.1591 0.302246L59.4622 13.6053Z" fill="#003466"/>
<path d="M13.4711 59.0357C15.1583 59.0357 16.526 57.668 16.526 55.9809C16.526 54.2937 15.1583 52.926 13.4711 52.926C11.784 52.926 10.4163 54.2937 10.4163 55.9809C10.4163 57.668 11.784 59.0357 13.4711 59.0357Z" fill="white"/>
<path d="M13.4711 45.8167C15.1583 45.8167 16.526 44.449 16.526 42.7619C16.526 41.0747 15.1583 39.707 13.4711 39.707C11.784 39.707 10.4163 41.0747 10.4163 42.7619C10.4163 44.449 11.784 45.8167 13.4711 45.8167Z" fill="white"/>
<path d="M13.4711 32.607C15.1583 32.607 16.526 31.2393 16.526 29.5522C16.526 27.865 15.1583 26.4973 13.4711 26.4973C11.784 26.4973 10.4163 27.865 10.4163 29.5522C10.4163 31.2393 11.784 32.607 13.4711 32.607Z" fill="white"/>
<path d="M49.055 54.346H24.5041C23.5979 54.346 22.8693 55.0747 22.8693 55.9809C22.8693 56.887 23.5979 57.6157 24.5041 57.6157H49.0644C49.9706 57.6157 50.6992 56.887 50.6992 55.9809C50.6992 55.0747 49.9612 54.346 49.055 54.346Z" fill="white"/>
<path d="M49.055 41.127H24.5041C23.5979 41.127 22.8693 41.8557 22.8693 42.7619C22.8693 43.6681 23.5979 44.3967 24.5041 44.3967H49.0644C49.9706 44.3967 50.6992 43.6681 50.6992 42.7619C50.6992 41.8557 49.9612 41.127 49.055 41.127Z" fill="white"/>
<path d="M24.5042 31.1871H49.0644C49.9706 31.1871 50.6993 30.4584 50.6993 29.5522C50.6993 28.646 49.9706 27.9174 49.0644 27.9174H24.5042C23.598 27.9174 22.8693 28.646 22.8693 29.5522C22.8693 30.4584 23.598 31.1871 24.5042 31.1871Z" fill="white"/>
</svg>
