<svg width="60" height="71" viewBox="0 0 60 71" fill="none" xmlns="http://www.w3.org/2000/svg">
<path d="M59.4622 70.3022H0V0.302246H46.1591L59.4622 13.6053V70.3022Z" fill="#F6AE02"/>
<path d="M59.4622 13.6053H46.1592L46.1591 0.302246L59.4622 13.6053Z" fill="#003466"/>
<path d="M47.7288 25.0867H11.7432V37.0819H47.7288V25.0867Z" fill="white"/>
<path d="M47.7289 58.6153H11.7433C10.8371 58.6153 10.1084 59.344 10.1084 60.2502C10.1084 61.1564 10.8371 61.885 11.7433 61.885H47.7289C48.635 61.885 49.3637 61.1564 49.3637 60.2502C49.3637 59.344 48.6257 58.6153 47.7289 58.6153Z" fill="white"/>
<path d="M11.7433 46.6015H47.7289C48.635 46.6015 49.3637 45.8728 49.3637 44.9666C49.3637 44.0604 48.635 43.3317 47.7289 43.3317H11.7433C10.8371 43.3317 10.1084 44.0604 10.1084 44.9666C10.1084 45.8728 10.8371 46.6015 11.7433 46.6015Z" fill="white"/>
<path d="M47.7289 50.9736H11.7433C10.8371 50.9736 10.1084 51.7022 10.1084 52.6084C10.1084 53.5146 10.8371 54.2433 11.7433 54.2433H47.7289C48.635 54.2433 49.3637 53.5146 49.3637 52.6084C49.3637 51.7022 48.6257 50.9736 47.7289 50.9736Z" fill="white"/>
</svg>
