<svg width="25" height="25" viewBox="0 0 25 25" fill="none" xmlns="http://www.w3.org/2000/svg">
<g clip-path="url(#clip0_450_6767)">
<rect width="24" height="24" transform="translate(0.5 0.40332)" fill="black"/>
<path d="M21.7806 18.8273C21.4328 19.6308 21.0211 20.3705 20.5441 21.0506C19.8939 21.9776 19.3615 22.6193 18.9512 22.9757C18.3151 23.5606 17.6337 23.8602 16.9039 23.8772C16.3801 23.8772 15.7483 23.7281 15.0129 23.4257C14.2751 23.1247 13.597 22.9757 12.977 22.9757C12.3268 22.9757 11.6294 23.1247 10.8835 23.4257C10.1365 23.7281 9.53466 23.8857 9.07453 23.9013C8.37475 23.9311 7.67725 23.6231 6.98102 22.9757C6.53665 22.5881 5.98084 21.9237 5.31499 20.9824C4.6006 19.9773 4.01326 18.8117 3.55313 17.4828C3.06035 16.0475 2.81332 14.6576 2.81332 13.312C2.81332 11.7706 3.14639 10.4412 3.81351 9.32717C4.33781 8.43232 5.03531 7.72644 5.90829 7.20825C6.78127 6.69006 7.72453 6.42599 8.74033 6.4091C9.29614 6.4091 10.025 6.58102 10.9308 6.91891C11.834 7.25794 12.414 7.42987 12.6682 7.42987C12.8583 7.42987 13.5026 7.22884 14.5948 6.82805C15.6276 6.45637 16.4993 6.30248 17.2134 6.3631C19.1485 6.51927 20.6023 7.28208 21.5691 8.65635C19.8385 9.70495 18.9824 11.1736 18.9994 13.0577C19.0151 14.5253 19.5474 15.7465 20.5938 16.7162C21.068 17.1662 21.5975 17.5141 22.1867 17.7611C22.0589 18.1316 21.924 18.4866 21.7806 18.8273ZM17.3426 1.36345C17.3426 2.51371 16.9224 3.58771 16.0848 4.58179C15.0739 5.76356 13.8513 6.44643 12.5254 6.33868C12.5085 6.20068 12.4987 6.05545 12.4987 5.90283C12.4987 4.79858 12.9794 3.61681 13.8331 2.65056C14.2593 2.16133 14.8014 1.75454 15.4587 1.43003C16.1146 1.11037 16.735 0.933593 17.3185 0.90332C17.3355 1.05709 17.3426 1.21087 17.3426 1.36344V1.36345Z" fill="white"/>
</g>
<defs>
<clipPath id="clip0_450_6767">
<rect width="24" height="24" fill="white" transform="translate(0.5 0.40332)"/>
</clipPath>
</defs>
</svg>
