<svg width="19" height="24" viewBox="0 0 19 24" fill="none" xmlns="http://www.w3.org/2000/svg">
<path d="M15.4375 12.6838C15.4269 10.87 16.242 9.50308 17.8881 8.49516C16.9675 7.16544 15.5746 6.4341 13.7386 6.29315C12.0002 6.15486 10.0982 7.31437 9.40176 7.31437C8.66577 7.31437 6.98274 6.34102 5.65848 6.34102C2.92553 6.38357 0.0211182 8.53771 0.0211182 12.9205C0.0211182 14.2156 0.255898 15.5533 0.725458 16.9309C1.3533 18.7446 3.61668 23.1885 5.97767 23.1167C7.21224 23.0875 8.08541 22.2338 9.69194 22.2338C11.251 22.2338 12.0582 23.1167 13.4352 23.1167C15.8173 23.0822 17.8644 19.0425 18.4606 17.2234C15.266 15.7049 15.4375 12.7768 15.4375 12.6838ZM12.6649 4.57249C14.0024 2.97151 13.8811 1.51414 13.8415 0.990234C12.6597 1.05938 11.2932 1.80136 10.515 2.71355C9.65765 3.69222 9.15379 4.90226 9.26195 6.26655C10.5387 6.36495 11.7047 5.70275 12.6649 4.57249Z" fill="white"/>
</svg>
