<svg width="25" height="20" viewBox="0 0 25 20" fill="none" xmlns="http://www.w3.org/2000/svg">
<path d="M23.6939 0.969727H1.40817C0.934061 0.969727 0.551025 1.35276 0.551025 1.82687V18.9697C0.551025 19.4438 0.934061 19.8269 1.40817 19.8269H23.6939C24.168 19.8269 24.551 19.4438 24.551 18.9697V1.82687C24.551 1.35276 24.168 0.969727 23.6939 0.969727ZM22.6225 3.93758V17.8983H2.4796V3.93758L1.74031 3.36169L2.79299 2.00901L3.93942 2.90098H21.1653L22.3117 2.00901L23.3644 3.36169L22.6225 3.93758ZM21.1653 2.8983L12.551 9.59473L3.93674 2.8983L2.79031 2.00633L1.73763 3.35901L2.47692 3.93491L11.6269 11.0492C11.8901 11.2536 12.2138 11.3646 12.547 11.3646C12.8802 11.3646 13.204 11.2536 13.4671 11.0492L22.6225 3.93758L23.3617 3.36169L22.3091 2.00901L21.1653 2.8983Z" fill="black" fill-opacity="0.85"/>
</svg>
