<svg width="25" height="25" viewBox="0 0 25 25" fill="none" xmlns="http://www.w3.org/2000/svg">
<g clip-path="url(#clip0_450_6753)">
<rect width="24" height="24" transform="translate(0.5 0.40332)" fill="#1877F2"/>
<path d="M24 12.4732C24 6.12192 18.8513 0.9732 12.5 0.9732C6.14872 0.9732 1 6.12192 1 12.4732C1 18.2132 5.20538 22.9708 10.7031 23.8335V15.7974H7.7832V12.4732H10.7031V9.93961C10.7031 7.05742 12.42 5.46539 15.0468 5.46539C16.305 5.46539 17.6211 5.69 17.6211 5.69V8.52007H16.171C14.7424 8.52007 14.2969 9.40654 14.2969 10.316V12.4732H17.4863L16.9765 15.7974H14.2969V23.8335C19.7946 22.9708 24 18.2132 24 12.4732Z" fill="white"/>
</g>
<defs>
<clipPath id="clip0_450_6753">
<rect width="24" height="24" fill="white" transform="translate(0.5 0.40332)"/>
</clipPath>
</defs>
</svg>
