<svg width="23" height="24" viewBox="0 0 23 24" fill="none" xmlns="http://www.w3.org/2000/svg">
<path fill-rule="evenodd" clip-rule="evenodd" d="M22.54 12.6648C22.54 11.8493 22.4668 11.0652 22.3309 10.3125H11.5V14.7609H17.6891C17.4225 16.1984 16.6123 17.4164 15.3943 18.2318V21.1173H19.1109C21.2855 19.1152 22.54 16.167 22.54 12.6648Z" fill="#4285F4"/>
<path fill-rule="evenodd" clip-rule="evenodd" d="M11.4999 23.9034C14.6049 23.9034 17.2081 22.8736 19.1108 21.1172L15.3942 18.2318C14.3645 18.9218 13.0472 19.3295 11.4999 19.3295C8.50469 19.3295 5.96946 17.3066 5.06514 14.5884H1.2231V17.5679C3.11537 21.3263 7.00446 23.9034 11.4999 23.9034Z" fill="#34A853"/>
<path fill-rule="evenodd" clip-rule="evenodd" d="M5.06523 14.5883C4.83523 13.8983 4.70455 13.1613 4.70455 12.4033C4.70455 11.6454 4.83523 10.9083 5.06523 10.2183V7.23877H1.22318C0.444318 8.79127 0 10.5476 0 12.4033C0 14.259 0.444318 16.0154 1.22318 17.5679L5.06523 14.5883Z" fill="#FBBC05"/>
<path fill-rule="evenodd" clip-rule="evenodd" d="M11.4999 5.47718C13.1883 5.47718 14.7042 6.05741 15.8961 7.19696L19.1945 3.89855C17.2029 2.04287 14.5997 0.90332 11.4999 0.90332C7.00446 0.90332 3.11537 3.48037 1.2231 7.23877L5.06514 10.2183C5.96946 7.50014 8.50469 5.47718 11.4999 5.47718Z" fill="#EA4335"/>
</svg>
